<svg fill="none" xmlns="http://www.w3.org/2000/svg" viewBox="0 0 10 14"><g filter="url(#a)"><path fill-rule="evenodd" clip-rule="evenodd" d="M5 3.993a1.44 1.44 0 0 1 .438-1.057l.002-.003A1.477 1.477 0 0 1 6.5 2.5c.4 0 .752.153 1.039.43.296.285.457.646.461 1.058V4a1.474 1.474 0 0 1-.222.769 1.58 1.58 0 0 1-.53.527l-.003.002-.002.001A1.444 1.444 0 0 1 6.5 5.5c-.407 0-.769-.148-1.06-.434l-.002-.002-.002-.002A1.465 1.465 0 0 1 5 3.992Zm-3 3a1.44 1.44 0 0 1 .438-1.057l.002-.003A1.477 1.477 0 0 1 3.5 5.5c.4 0 .752.153 1.039.43.296.285.457.646.461 1.058V7a1.474 1.474 0 0 1-.222.769 1.58 1.58 0 0 1-.53.527l-.003.002-.002.001A1.444 1.444 0 0 1 3.5 8.5c-.407 0-.769-.148-1.06-.434l-.002-.002-.002-.002A1.465 1.465 0 0 1 2 6.992Zm3.438 1.943A1.44 1.44 0 0 0 5 9.993c-.002.411.146.778.436 1.07l.002.001.002.002c.291.286.653.434 1.06.434.264 0 .515-.068.743-.202l.002-.002.003-.001a1.58 1.58 0 0 0 .53-.527c.145-.234.218-.494.222-.769v-.011a1.45 1.45 0 0 0-.461-1.058A1.464 1.464 0 0 0 6.5 8.5c-.407 0-.769.148-1.06.433l-.002.003Z" fill="#fff"/></g><defs><filter id="a" x="0" y=".5" width="10" height="13" filterUnits="userSpaceOnUse" color-interpolation-filters="sRGB"><feFlood flood-opacity="0" result="BackgroundImageFix"/><feColorMatrix in="SourceAlpha" values="0 0 0 0 0 0 0 0 0 0 0 0 0 0 0 0 0 0 127 0" result="hardAlpha"/><feOffset/><feGaussianBlur stdDeviation="1"/><feComposite in2="hardAlpha" operator="out"/><feColorMatrix values="0 0 0 0 1 0 0 0 0 1 0 0 0 0 1 0 0 0 1 0"/><feBlend in2="BackgroundImageFix" result="effect1_dropShadow_106_165"/><feBlend in="SourceGraphic" in2="effect1_dropShadow_106_165" result="shape"/></filter></defs></svg>