<svg fill="none" xmlns="http://www.w3.org/2000/svg" viewBox="0 0 24 24"><path fill-rule="evenodd" clip-rule="evenodd" d="M15.577 20.803A9.473 9.473 0 0 1 12 21.5a9.458 9.458 0 0 1-5.773-1.954c2.546-3.532 5.024-5.17 7.414-5.712.309.883.614 1.882.9 2.894.416 1.478.78 2.952 1.036 4.075Zm-.966-8.654c-.146-.36-.293-.69-.44-.984-.118-.236-.252-.491-.399-.762.178-.07.352-.14.523-.214 2.223-.952 3.731-2.568 5.036-4.231a9.462 9.462 0 0 1 2.155 6.566c-2.24-.691-4.723-.664-6.875-.374Zm.534 1.445c.296.867.58 1.805.84 2.728.38 1.35.716 2.695.97 3.785a9.513 9.513 0 0 0 4.327-6.073c-1.903-.644-4.106-.681-6.137-.44Zm-2.046-1.173c-.09-.211-.18-.407-.27-.586-.142-.285-.31-.602-.5-.944-3.033.898-6.656 1.213-9.828.964L2.5 12c0 2.532.99 4.834 2.606 6.537 2.595-3.556 5.254-5.435 7.993-6.116Zm-1.536-2.87c-2.754.76-6.03 1.035-8.922.81a9.512 9.512 0 0 1 5.12-6.865c1.024 1.556 2.59 3.998 3.802 6.055ZM9.18 2.925c1.073 1.636 2.65 4.104 3.846 6.156.232-.086.459-.176.679-.27 1.948-.835 3.278-2.275 4.572-3.942A9.464 9.464 0 0 0 12 2.5c-.982 0-1.929.149-2.82.425ZM23 12c0 6.075-4.925 11-11 11S1 18.075 1 12 5.925 1 12 1s11 4.925 11 11Z" fill="#fff"/></svg>