<svg fill="none" xmlns="http://www.w3.org/2000/svg" viewBox="0 0 24 24"><path fill-rule="evenodd" clip-rule="evenodd" d="M16 3.5H8A4.5 4.5 0 0 0 3.5 8v8A4.5 4.5 0 0 0 8 20.5h8a4.5 4.5 0 0 0 4.5-4.5V8A4.5 4.5 0 0 0 16 3.5ZM8 2a6 6 0 0 0-6 6v8a6 6 0 0 0 6 6h8a6 6 0 0 0 6-6V8a6 6 0 0 0-6-6H8Zm10.5 4.75a1.25 1.25 0 1 1-2.5 0 1.25 1.25 0 0 1 2.5 0Zm-3.64.984a5.164 5.164 0 0 1 1.407 1.407A5.134 5.134 0 0 1 12 17.135a5.135 5.135 0 1 1 2.859-9.401ZM8.365 12a3.636 3.636 0 1 1 7.272 0 3.636 3.636 0 0 1-7.272 0Z" fill="#fff"/></svg>