<svg fill="none" xmlns="http://www.w3.org/2000/svg" viewBox="0 0 17 16"><g clip-path="url(#a)"><path d="M15.507 1.37 1.017 6.979a.183.183 0 0 0-.025.012c-.118.066-.938.568.218 1.018l.012.004 3.45 1.115a.19.19 0 0 0 .16-.02l8.558-5.34a.187.187 0 0 1 .069-.025c.119-.02.462-.057.245.219-.246.312-6.091 5.55-6.74 6.131a.197.197 0 0 0-.065.13l-.283 3.376a.222.222 0 0 0 .089.177.215.215 0 0 0 .255-.02l2.05-1.832a.19.19 0 0 1 .238-.012l3.577 2.597.012.008c.086.054 1.021.598 1.291-.617l2.47-11.74c.003-.037.036-.446-.256-.687-.307-.253-.741-.125-.807-.112a.186.186 0 0 0-.028.01Z" fill="#fff"/></g><defs><clipPath id="a"><path fill="#fff" transform="translate(.6)" d="M0 0h16v16H0z"/></clipPath></defs></svg>