<svg id="logo" fill="none" xmlns="http://www.w3.org/2000/svg" viewBox="0 0 42 32"><path fill-rule="evenodd" clip-rule="evenodd" d="M33.417 29.03a3.68 3.68 0 0 0 2.665 1.084 3.56 3.56 0 0 0 1.834-.495 4.04 4.04 0 0 0 1.366-1.352c.358-.572.54-1.206.55-1.902-.01-1.018-.393-1.888-1.152-2.611-.75-.724-1.616-1.085-2.598-1.085a3.68 3.68 0 0 0-2.665 1.085c-.732.723-1.094 1.593-1.085 2.611-.009 1.045.353 1.933 1.085 2.665Zm-2.97-2.665c-.01-1.527.559-2.88 1.645-3.953l.008-.008a5.564 5.564 0 0 1 3.982-1.62c1.5 0 2.825.572 3.902 1.608 1.114 1.063 1.72 2.413 1.733 3.956v.041a5.491 5.491 0 0 1-.834 2.874 5.926 5.926 0 0 1-1.993 1.97l-.01.006-.009.006a5.444 5.444 0 0 1-2.79.755 5.564 5.564 0 0 1-3.98-1.62l-.01-.009-.007-.008c-1.09-1.09-1.647-2.46-1.637-3.998ZM28.421 24.629l-.002.003c-1.354 2.382-3.21 4.227-5.556 5.484l-.006.003c-2.313 1.228-4.87 1.827-7.634 1.827-2.78 0-5.35-.603-7.666-1.843l-.008-.005c-2.335-1.266-4.183-3.114-5.535-5.493l-.005-.008C.636 22.152 0 19.249 0 15.973c0-3.29.635-6.2 2.01-8.64l.002-.002c1.353-2.39 3.204-4.238 5.547-5.488C9.875.603 12.443 0 15.223 0c2.765 0 5.323.604 7.637 1.842 2.35 1.249 4.207 3.097 5.56 5.488 1.386 2.44 2.027 5.35 2.027 8.643 0 3.294-.641 6.209-2.026 8.656ZM26.78 8.259c-1.187-2.097-2.79-3.682-4.808-4.753-2.017-1.08-4.267-1.62-6.749-1.62-2.5 0-4.758.54-6.776 1.62C6.44 4.577 4.841 6.162 3.653 8.26c-1.178 2.089-1.768 4.66-1.768 7.713 0 3.036.59 5.602 1.768 7.7 1.188 2.09 2.786 3.678 4.794 4.768 2.018 1.08 4.277 1.62 6.776 1.62 2.482 0 4.732-.536 6.75-1.607 2.017-1.08 3.62-2.665 4.807-4.754 1.187-2.098 1.781-4.674 1.781-7.727s-.594-5.624-1.781-7.713Zm-8.296 4.238-.003-.008c-.317-.84-.74-1.357-1.216-1.682l-.009-.007-.01-.006c-.462-.325-1.099-.542-2.023-.542-.923 0-1.569.217-2.044.547l-.004.003c-.471.326-.899.848-1.226 1.695-.322.847-.518 1.987-.518 3.476 0 1.486.195 2.63.518 3.49.324.83.75 1.357 1.228 1.696.476.323 1.123.535 2.046.535.929 0 1.57-.215 2.033-.534.486-.339.911-.864 1.227-1.693l.003-.008c.33-.856.53-1.999.53-3.486 0-1.488-.2-2.624-.528-3.468l-.003-.008Zm-.154 10.212c-.84.58-1.875.87-3.107.87-1.232 0-2.272-.29-3.12-.87-.84-.59-1.477-1.446-1.915-2.571-.428-1.134-.643-2.522-.643-4.165 0-1.643.215-3.026.643-4.151.438-1.134 1.076-1.991 1.915-2.571.848-.59 1.888-.884 3.12-.884 1.232 0 2.268.295 3.107.884.848.58 1.487 1.437 1.915 2.57.438 1.126.656 2.51.656 4.152 0 1.643-.218 3.031-.656 4.165-.428 1.125-1.067 1.982-1.915 2.571Z" fill="#fff"/></svg>