<svg width="320" height="100" viewBox="0 0 320 100" fill="none" xmlns="http://www.w3.org/2000/svg">
<path fill-rule="evenodd" clip-rule="evenodd" d="M5.51893 43.5283L8.9843 44.4231C12.2785 39.1818 15.038 34.5158 17.2627 30.4251C19.5302 26.3343 21.5837 21.8387 23.4234 16.9383C25.3058 11.9953 26.632 6.88186 27.4021 1.59795L24.0009 0.319591V0H55.5101V0.319591L51.1463 1.59795L38.6967 44.7427H43.7664V55.7367H43.3813L43.1888 54.3944C42.8466 52.1359 42.3118 50.3675 41.5845 49.0892C40.8572 47.8534 39.7876 46.9373 38.3758 46.3407C37.0068 45.7867 35.1243 45.5097 32.7285 45.5097H15.915C13.4337 45.5097 11.3801 45.7867 9.75438 46.3407C8.12865 46.8946 6.67405 47.7895 5.39058 49.0252C4.10711 50.3036 2.71668 52.0933 1.2193 54.3944L0.385041 55.7367H0L5.51893 43.5283ZM32.536 44.7427L45.1782 0.767016H30.8675L27.0171 10.8661C25.0491 16.0222 22.7174 21.3487 20.0222 26.8456C17.3269 32.3426 14.3107 38.3083 10.9737 44.7427H32.536Z" fill="white"/>
<path d="M140.358 21.86C142.582 18.7493 144.465 16.3844 146.005 14.7651C147.545 13.1032 149.042 12.2723 150.497 12.2723C151.353 12.2723 152.059 12.6132 152.615 13.295C153.171 13.9768 153.449 15.0208 153.449 16.427C153.449 17.8758 153.15 19.5803 152.551 21.5404L147.866 36.9447H147.93L169.3 13.0393H172.509L165.899 35.4746C165.343 37.3921 165.064 38.8409 165.064 39.821C165.064 41.142 165.492 41.8025 166.348 41.8025C166.947 41.8025 167.546 41.4403 168.145 40.7159C168.787 39.9915 169.813 38.6492 171.225 36.689H171.803C169.664 39.7571 167.824 42.1221 166.284 43.784C164.786 45.4458 163.332 46.2768 161.92 46.2768C161.064 46.2768 160.358 45.9146 159.802 45.1902C159.246 44.4231 158.968 43.2726 158.968 41.7386C158.968 39.9489 159.31 37.9248 159.995 35.6663L164.679 19.9425H164.551L139.395 47.1077H139.074L146.903 21.0291C147.246 19.8786 147.417 18.8985 147.417 18.0888C147.417 16.9383 147.032 16.3631 146.262 16.3631C145.62 16.3631 144.935 16.7679 144.208 17.5775C143.481 18.3871 142.39 19.8146 140.935 21.86H140.358Z" fill="white"/>
<path d="M172.701 0C171.888 2.85501 170.541 5.02823 168.658 6.51965C166.819 7.96847 164.658 8.69287 162.177 8.69287C159.695 8.69287 157.749 8.03238 156.337 6.71141C154.925 5.34782 154.219 3.55811 154.219 1.34228C154.219 0.74571 154.241 0.298284 154.283 0H158.583C158.369 1.19314 158.262 2.21583 158.262 3.06807C158.262 4.68733 158.583 5.9657 159.225 6.90316C159.909 7.79802 160.872 8.24545 162.112 8.24545C165.022 8.24545 167.139 5.49696 168.466 0H172.701Z" fill="white"/>
<path d="M180.381 18.0888C180.381 18.8984 180.21 19.8785 179.867 21.029L172.68 45.5097H178.584L183.718 27.9322H194.756L192.574 35.5385C191.847 38.01 191.483 40.0767 191.483 41.7385C191.483 43.3152 191.761 44.4657 192.317 45.1901C192.873 45.9145 193.601 46.2767 194.499 46.2767C195.868 46.2767 197.323 45.4245 198.863 43.72C200.446 42.0155 202.285 39.6719 204.382 36.689H203.804C202.35 38.6918 201.301 40.0554 200.66 40.7798C200.061 41.4616 199.462 41.8025 198.863 41.8025C198.05 41.8025 197.644 41.1633 197.644 39.8849C197.644 38.9048 197.922 37.4347 198.478 35.4746L205.023 13.0393H199.12L195.012 27.2291H183.91L185.579 21.4765C186.135 19.5163 186.413 17.8331 186.413 16.4269C186.413 15.0207 186.135 13.9767 185.579 13.2949C185.023 12.6132 184.317 12.2723 183.461 12.2723C182.007 12.2723 180.509 13.1032 178.969 14.7651C177.429 16.3843 175.546 18.7493 173.322 21.86H173.899C175.354 19.8146 176.445 18.3871 177.172 17.5775C177.899 16.7678 178.584 16.363 179.226 16.363C179.996 16.363 180.381 16.9383 180.381 18.0888Z" fill="white"/>
<path d="M224.404 14.7651C222.864 16.3843 220.982 18.7493 218.757 21.86H219.335C220.789 19.8146 221.88 18.3871 222.608 17.5775C223.335 16.7678 224.019 16.363 224.661 16.363C225.431 16.363 225.816 16.9383 225.816 18.0888C225.816 18.8984 225.645 19.8785 225.303 21.029L217.474 47.1077H217.795L242.951 19.9424H243.079L238.394 35.6663C237.71 37.9248 237.367 39.9488 237.367 41.7385C237.367 43.2726 237.646 44.4231 238.202 45.1901C238.758 45.9145 239.464 46.2767 240.319 46.2767C241.731 46.2767 243.186 45.4458 244.683 43.7839C246.223 42.122 248.063 39.7571 250.202 36.689H249.625C248.213 38.6492 247.186 39.9914 246.544 40.7159C245.945 41.4403 245.346 41.8025 244.747 41.8025C243.892 41.8025 243.464 41.142 243.464 39.821C243.464 38.8409 243.742 37.3921 244.298 35.4746L250.908 13.0393H247.699L226.33 36.9447H226.265L230.95 21.5404C231.549 19.5802 231.849 17.8757 231.849 16.4269C231.849 15.0207 231.57 13.9767 231.014 13.2949C230.458 12.6132 229.752 12.2723 228.897 12.2723C227.442 12.2723 225.945 13.1032 224.404 14.7651Z" fill="white"/>
<path fill-rule="evenodd" clip-rule="evenodd" d="M110.975 25.9507C108.665 29.8285 107.51 33.5996 107.51 37.2643C107.51 39.0966 107.809 40.6945 108.408 42.0581C109.007 43.4217 109.777 44.4657 110.718 45.1901C111.66 45.9145 112.644 46.2767 113.67 46.2767C114.911 46.2767 116.088 45.7228 117.2 44.6149C118.355 43.4643 119.489 41.9516 120.601 40.0767C121.756 38.1591 123.318 35.3254 125.286 31.5755L127.339 27.7405L130.548 21.7961H131.126L127.083 35.5385C126.398 37.7969 126.056 39.8423 126.056 41.6746C126.056 43.2513 126.334 44.4231 126.89 45.1901C127.446 45.9145 128.152 46.2767 129.008 46.2767C130.377 46.2767 131.832 45.4245 133.372 43.72C134.955 42.0155 136.794 39.6719 138.891 36.689H138.313C136.901 38.6492 135.853 39.9914 135.169 40.7159C134.527 41.4403 133.928 41.8025 133.372 41.8025C132.559 41.8025 132.152 41.1633 132.152 39.8849C132.152 38.9048 132.431 37.4347 132.987 35.4746L139.597 12.4001H139.276L137.158 15.4682C134.976 14.275 133.329 13.4441 132.217 12.9754C131.147 12.5066 129.992 12.2723 128.751 12.2723C125.97 12.2723 122.89 13.5719 119.51 16.1713C116.173 18.7706 113.328 22.0304 110.975 25.9507ZM119.061 40.0767C118.205 40.9715 117.393 41.4189 116.622 41.4189C115.767 41.4189 115.018 40.9715 114.376 40.0767C113.777 39.1392 113.478 37.6904 113.478 35.7302C113.478 32.3639 114.162 28.9336 115.531 25.4394C116.943 21.9452 118.676 19.0689 120.73 16.8104C122.783 14.552 124.751 13.4228 126.633 13.4228C127.575 13.4228 128.452 13.6998 129.265 14.2537C130.077 14.7651 131.147 15.6173 132.473 16.8104L126.698 27.4209C124.644 31.2133 123.061 34.0471 121.949 35.922C120.879 37.7543 119.917 39.1392 119.061 40.0767Z" fill="white"/>
<path d="M80.3423 40.7798C80.3423 39.9275 80.6204 39.2031 81.1766 38.6065C81.69 37.9674 82.3531 37.456 83.1659 37.0725C83.7221 39.7997 84.6205 41.8877 85.8612 43.3365C87.1447 44.7853 88.7063 45.5097 90.5459 45.5097C91.9149 45.5097 93.177 45.1262 94.3322 44.3592C95.5301 43.5922 96.4927 42.4843 97.22 41.0354C97.9473 39.5866 98.3109 37.8821 98.3109 35.922C98.3109 33.3653 97.7119 31.4051 96.514 30.0415C95.3161 28.6353 93.8615 27.9322 92.1502 27.9322H88.749V27.2291H93.7546C95.7226 27.2291 97.3911 26.4408 98.7601 24.8641C100.129 23.2449 100.814 21.1782 100.814 18.6641C100.814 16.8318 100.429 15.4256 99.6585 14.4455C98.8885 13.4654 97.8403 12.9754 96.514 12.9754C94.6744 12.9754 92.8134 13.8915 90.9309 15.7238C89.0485 17.5562 87.4014 19.9211 85.9896 22.8188H85.6687L87.979 14.5094C91.0593 13.018 94.1182 12.2723 97.1558 12.2723C99.9794 12.2723 102.161 12.8475 103.701 13.998C105.242 15.106 106.012 16.5761 106.012 18.4084C106.012 20.3259 105.177 22.0091 103.509 23.4579C101.84 24.9067 99.9152 25.9081 97.7333 26.4621V26.5899C99.3591 26.9734 100.878 27.7618 102.29 28.9549C103.701 30.148 104.407 31.7886 104.407 33.8766C104.407 35.8368 103.723 37.7969 102.354 39.7571C100.985 41.6746 99.1452 43.2513 96.8349 44.487C94.5247 45.6802 92.0219 46.2767 89.3266 46.2767C86.7169 46.2767 84.5564 45.7441 82.8451 44.6788C81.1766 43.5709 80.3423 42.2712 80.3423 40.7798Z" fill="white"/>
<path d="M54.7581 14.7651C53.2179 16.3843 51.3355 18.7493 49.1108 21.86H49.6884C51.143 19.8146 52.234 18.3871 52.9613 17.5775C53.6886 16.7678 54.3731 16.363 55.0148 16.363C55.7849 16.363 56.1699 16.9383 56.1699 18.0888C56.1699 18.8984 55.9988 19.8785 55.6565 21.029L47.8274 47.1077H48.1482L73.3043 19.9424H73.4326L68.7479 35.6663C68.0634 37.9248 67.7212 39.9488 67.7212 41.7385C67.7212 43.2726 67.9993 44.4231 68.5554 45.1901C69.1116 45.9145 69.8175 46.2767 70.6732 46.2767C72.085 46.2767 73.5396 45.4458 75.037 43.7839C76.5771 42.122 78.4168 39.7571 80.5559 36.689H79.9783C78.5665 38.6492 77.5397 39.9914 76.898 40.7159C76.299 41.4403 75.7001 41.8025 75.1011 41.8025C74.2455 41.8025 73.8177 41.142 73.8177 39.821C73.8177 38.8409 74.0958 37.3921 74.6519 35.4746L81.2618 13.0393H78.0531L56.6833 36.9447H56.6191L61.3038 21.5404C61.9028 19.5802 62.2022 17.8757 62.2022 16.4269C62.2022 15.0207 61.9242 13.9767 61.368 13.2949C60.8118 12.6132 60.1059 12.2723 59.2503 12.2723C57.7957 12.2723 56.2983 13.1032 54.7581 14.7651Z" fill="white"/>
<path fill-rule="evenodd" clip-rule="evenodd" d="M278.685 99.0909L288.929 58.613H297.969L308.357 99.4407H301.17L298.924 89.5414H288.03L285.784 99.4407H271.038L262.952 81.4877H258.179V99.4407H251.16V58.613H258.179V75.1118H263.065L270.757 58.613H278.394L269.241 78.1879L278.685 99.0909ZM297.632 83.8367L295.161 72.8747C294.75 71.0477 294.394 69.4071 294.095 67.953C293.795 66.4616 293.589 65.3803 293.477 64.7092C293.365 65.3803 293.159 66.4616 292.859 67.953C292.597 69.4071 292.242 71.0291 291.792 72.8188L289.322 83.8367H297.632Z" fill="white"/>
<path d="M230.462 99.4407V65.1007H219.737V58.613H248.262V65.1007H237.537V99.4407H230.462Z" fill="white"/>
<path fill-rule="evenodd" clip-rule="evenodd" d="M197.411 98.5458C199.357 99.5153 201.641 100 204.261 100C206.919 100 209.203 99.5153 211.112 98.5458C213.021 97.5391 214.481 96.1409 215.492 94.3512C216.54 92.5242 217.064 90.3803 217.064 87.9194V70.0783C217.064 67.6547 216.54 65.5481 215.492 63.7584C214.481 61.9314 213.021 60.5332 211.112 59.5637C209.203 58.557 206.919 58.0537 204.261 58.0537C201.641 58.0537 199.357 58.557 197.411 59.5637C195.501 60.5332 194.023 61.9314 192.975 63.7584C191.964 65.5481 191.459 67.6734 191.459 70.1342V87.9194C191.459 90.3803 191.964 92.5242 192.975 94.3512C194.023 96.1409 195.501 97.5391 197.411 98.5458ZM208.585 92.3378C207.612 93.3445 206.17 93.8479 204.261 93.8479C202.389 93.8479 200.948 93.3445 199.938 92.3378C198.964 91.2938 198.478 89.821 198.478 87.9194V70.1342C198.478 68.1954 198.964 66.7226 199.938 65.7159C200.911 64.7092 202.352 64.2058 204.261 64.2058C206.17 64.2058 207.612 64.7092 208.585 65.7159C209.558 66.7226 210.045 68.1954 210.045 70.1342V87.9194C210.045 89.821 209.558 91.2938 208.585 92.3378Z" fill="white"/>
<path fill-rule="evenodd" clip-rule="evenodd" d="M162.057 99.4407V58.613H186.651V65.1007H168.907V75H174.916C177.686 75 180.063 75.5033 182.047 76.51C184.068 77.5168 185.641 78.9336 186.764 80.7606C187.887 82.5876 188.448 84.7315 188.448 87.1924C188.448 89.6532 187.887 91.7972 186.764 93.6241C185.641 95.4511 184.068 96.8866 182.047 97.9306C180.063 98.9373 177.705 99.4407 174.972 99.4407H162.057ZM168.907 93.4564H174.972C176.956 93.4564 178.509 92.8971 179.632 91.7785C180.755 90.6599 181.317 89.1499 181.317 87.2483C181.317 85.3095 180.755 83.7807 179.632 82.6622C178.509 81.5436 176.956 80.9843 174.972 80.9843H168.907V93.4564Z" fill="white"/>
<path fill-rule="evenodd" clip-rule="evenodd" d="M140.236 58.613L129.904 99.4407H137.091L139.337 89.5414H150.231L152.477 99.4407H159.664L149.276 58.613H140.236ZM148.939 83.8367H140.629L143.1 72.8188C143.549 71.0291 143.904 69.4071 144.166 67.953C144.466 66.4616 144.672 65.3803 144.784 64.7092C144.896 65.3803 145.102 66.4616 145.402 67.953C145.701 69.4071 146.057 71.0477 146.469 72.8747L148.939 83.8367Z" fill="white"/>
<path fill-rule="evenodd" clip-rule="evenodd" d="M102.524 99.4407V58.613H116.169C118.901 58.613 121.278 59.135 123.3 60.179C125.359 61.223 126.95 62.6957 128.073 64.5973C129.196 66.4616 129.757 68.6614 129.757 71.1969C129.757 73.695 129.177 75.8948 128.017 77.7964C126.894 79.698 125.321 81.1708 123.3 82.2148C121.278 83.2587 118.901 83.7807 116.169 83.7807H109.543V99.4407H102.524ZM109.543 77.4608H116.169C118.115 77.4608 119.669 76.9016 120.829 75.783C122.027 74.6271 122.626 73.0984 122.626 71.1969C122.626 69.258 122.027 67.7293 120.829 66.6107C119.669 65.4922 118.115 64.9329 116.169 64.9329H109.543V77.4608Z" fill="white"/>
<path d="M77.8949 98.6577C79.9538 99.5526 82.3496 100 85.0824 100C87.9648 100 90.4542 99.478 92.5506 98.434C94.6843 97.39 96.3314 95.9545 97.4919 94.1275C98.6524 92.2632 99.2326 90.1007 99.2326 87.6398C99.2326 85.5145 98.7647 83.6502 97.8288 82.047C96.893 80.4437 95.5828 79.2133 93.8982 78.3557C93.1827 77.9914 92.4132 77.7079 91.5896 77.5051C92.2922 77.3101 92.9494 77.053 93.5613 76.7338C95.171 75.9135 96.3876 74.7576 97.2112 73.2662C98.0722 71.7375 98.5027 70.0224 98.5027 68.1208C98.5027 64.9515 97.3048 62.4907 94.909 60.7382C92.5131 58.9485 89.2937 58.0537 85.2508 58.0537C82.593 58.0537 80.2533 58.5198 78.2318 59.4519C76.2104 60.384 74.6007 61.7077 73.4028 63.4228C72.2423 65.1379 71.5872 67.17 71.4375 69.519H78.5126C78.6623 67.8784 79.3174 66.5734 80.4779 65.604C81.6758 64.6346 83.1919 64.1499 85.0262 64.1499C87.0851 64.1499 88.6948 64.6159 89.8553 65.5481C91.0532 66.4802 91.6521 67.8039 91.6521 69.519C91.6521 71.1596 91.0532 72.5764 89.8553 73.7696C88.6948 74.9254 87.0851 75.5033 85.0262 75.5033H79.5233V81.8232H85.0824C87.2536 81.8232 88.9568 82.3639 90.1922 83.4452C91.465 84.5265 92.1013 85.9806 92.1013 87.8076C92.1013 89.5973 91.465 91.0701 90.1922 92.2259C88.9194 93.3445 87.2161 93.9038 85.0824 93.9038C83.0983 93.9038 81.4699 93.4564 80.1972 92.5615C78.9244 91.6294 78.1944 90.3617 78.0072 88.7584H70.9882C71.138 91.0328 71.8118 93.0276 73.0097 94.7427C74.2076 96.4206 75.836 97.7256 77.8949 98.6577Z" fill="white"/>
<path fill-rule="evenodd" clip-rule="evenodd" d="M40.6882 99.4407L51.0201 58.613H60.0606L70.4487 99.4407H63.2612L61.0151 89.5414H50.1217L47.8756 99.4407H40.6882ZM51.4132 83.8367H59.7237L57.253 72.8747C56.8412 71.0477 56.4856 69.4071 56.1861 67.953C55.8866 66.4616 55.6807 65.3803 55.5684 64.7092C55.4561 65.3803 55.2502 66.4616 54.9507 67.953C54.6887 69.4071 54.3331 71.0291 53.8839 72.8188L51.4132 83.8367Z" fill="white"/>
<path fill-rule="evenodd" clip-rule="evenodd" d="M13.308 58.613V99.4407H20.327V83.7807H26.9529C29.6856 83.7807 32.0627 83.2587 34.0842 82.2148C36.1057 81.1708 37.6779 79.698 38.8009 77.7964C39.9614 75.8948 40.5417 73.695 40.5417 71.1969C40.5417 68.6614 39.9801 66.4616 38.8571 64.5973C37.7341 62.6957 36.1431 61.223 34.0842 60.179C32.0627 59.135 29.6856 58.613 26.9529 58.613H13.308ZM26.9529 77.4608H20.327V64.9329H26.9529C28.8995 64.9329 30.453 65.4922 31.6135 66.6107C32.8114 67.7293 33.4104 69.258 33.4104 71.1969C33.4104 73.0984 32.8114 74.6271 31.6135 75.783C30.453 76.9016 28.8995 77.4608 26.9529 77.4608Z" fill="white"/>
<path d="M312.999 98.4985C313.743 99.2115 314.731 99.568 315.963 99.568C317.194 99.568 318.167 99.2115 318.883 98.4985C319.628 97.7855 320 96.8158 320 95.5894C320 94.363 319.628 93.3933 318.883 92.6803C318.167 91.9388 317.194 91.568 315.963 91.568C314.731 91.568 313.743 91.9388 312.999 92.6803C312.283 93.3933 311.925 94.363 311.925 95.5894C311.925 96.8158 312.283 97.7855 312.999 98.4985Z" fill="white"/>
</svg>
